<mxfile host="app.diagrams.net" agent="Mozilla/5.0 (Windows NT 10.0; Win64; x64) AppleWebKit/537.36 (KHTML, like Gecko) Chrome/131.0.0.0 Safari/537.36" version="26.0.4">
  <diagram name="Page-1" id="c7558073-3199-34d8-9f00-42111426c3f3">
    <mxGraphModel dx="1434" dy="746" grid="1" gridSize="10" guides="1" tooltips="1" connect="1" arrows="1" fold="1" page="1" pageScale="1" pageWidth="826" pageHeight="1169" background="none" math="0" shadow="0">
      <root>
        <mxCell id="0" />
        <mxCell id="1" parent="0" />
        <mxCell id="2" value="&lt;p style=&quot;margin: 0px; margin-top: 4px; text-align: center; text-decoration: underline;&quot;&gt;&lt;font style=&quot;font-size: 15px;&quot;&gt;登录成功提示&lt;/font&gt;&lt;/p&gt;&lt;hr&gt;&lt;p style=&quot;margin: 0px; margin-left: 8px;&quot;&gt;&lt;br&gt;&lt;/p&gt;" style="verticalAlign=middle;align=center;overflow=fill;fontSize=12;fontFamily=Helvetica;html=1;rounded=1;fontStyle=1;strokeWidth=3;fillColor=#E6FFCC;strokeColor=default;fontColor=default;" parent="1" vertex="1">
          <mxGeometry x="380" y="60" width="110" height="100" as="geometry" />
        </mxCell>
        <mxCell id="5AorsIgvm4bH7aJcMWdh-177" value="" style="edgeStyle=elbowEdgeStyle;rounded=0;orthogonalLoop=1;jettySize=auto;html=1;fillColor=#dae8fc;strokeColor=#6c8ebf;strokeWidth=2;" edge="1" parent="1" source="10" target="5AorsIgvm4bH7aJcMWdh-176">
          <mxGeometry relative="1" as="geometry" />
        </mxCell>
        <mxCell id="10" value="&lt;p style=&quot;margin: 0px; margin-top: 4px; text-align: center; text-decoration: underline;&quot;&gt;&lt;strong&gt;&lt;font style=&quot;font-size: 15px;&quot;&gt;商户列表页&lt;/font&gt;&lt;/strong&gt;&lt;/p&gt;&lt;hr&gt;&lt;p style=&quot;margin: 0px; margin-left: 8px;&quot;&gt;仅MS admin&lt;/p&gt;" style="verticalAlign=middle;align=center;overflow=fill;fontSize=12;fontFamily=Helvetica;html=1;rounded=1;fontStyle=1;strokeWidth=3;fillColor=#dae8fc;strokeColor=#6c8ebf;" parent="1" vertex="1">
          <mxGeometry x="30" y="500" width="110" height="90" as="geometry" />
        </mxCell>
        <mxCell id="92" value="" style="edgeStyle=elbowEdgeStyle;elbow=horizontal;strokeColor=#990000;strokeWidth=2;exitX=0.5;exitY=1;exitDx=0;exitDy=0;" parent="1" source="2" target="5AorsIgvm4bH7aJcMWdh-110" edge="1">
          <mxGeometry width="100" height="100" relative="1" as="geometry">
            <mxPoint x="250" y="422" as="sourcePoint" />
            <mxPoint x="439" y="290" as="targetPoint" />
            <Array as="points" />
          </mxGeometry>
        </mxCell>
        <mxCell id="93" value="" style="elbow=horizontal;strokeColor=#990000;strokeWidth=2;entryX=0;entryY=0.63;entryDx=0;entryDy=0;entryPerimeter=0;exitX=0.973;exitY=0.65;exitDx=0;exitDy=0;exitPerimeter=0;" parent="1" source="5AorsIgvm4bH7aJcMWdh-119" target="5AorsIgvm4bH7aJcMWdh-97" edge="1">
          <mxGeometry width="100" height="100" relative="1" as="geometry">
            <mxPoint x="121.98000000000002" y="131" as="sourcePoint" />
            <mxPoint x="100" y="200" as="targetPoint" />
          </mxGeometry>
        </mxCell>
        <mxCell id="5AorsIgvm4bH7aJcMWdh-99" value="" style="edgeStyle=orthogonalEdgeStyle;rounded=1;orthogonalLoop=1;jettySize=auto;html=1;curved=0;strokeWidth=2;strokeColor=light-dark(#990000, #ededed);" edge="1" parent="1" source="5AorsIgvm4bH7aJcMWdh-97" target="2">
          <mxGeometry relative="1" as="geometry">
            <Array as="points">
              <mxPoint x="270" y="121" />
            </Array>
          </mxGeometry>
        </mxCell>
        <mxCell id="5AorsIgvm4bH7aJcMWdh-97" value="&lt;p style=&quot;margin: 0px; margin-top: 4px; text-align: center; text-decoration: underline;&quot;&gt;&lt;font style=&quot;font-size: 15px;&quot;&gt;登录页&lt;/font&gt;&lt;/p&gt;&lt;hr&gt;&lt;p style=&quot;margin: 0px; margin-left: 8px;&quot;&gt;账号&lt;/p&gt;&lt;p style=&quot;margin: 0px; margin-left: 8px;&quot;&gt;密码&lt;/p&gt;&lt;p style=&quot;margin: 0px; margin-left: 8px;&quot;&gt;&lt;br&gt;&lt;/p&gt;" style="verticalAlign=middle;align=center;overflow=fill;fontSize=12;fontFamily=Helvetica;html=1;rounded=1;fontStyle=1;strokeWidth=3;fillColor=#E6FFCC" vertex="1" parent="1">
          <mxGeometry x="216" y="60" width="110" height="100" as="geometry" />
        </mxCell>
        <mxCell id="5AorsIgvm4bH7aJcMWdh-115" style="edgeStyle=elbowEdgeStyle;rounded=1;orthogonalLoop=1;jettySize=auto;html=1;exitX=0.5;exitY=0;exitDx=0;exitDy=0;curved=0;strokeWidth=2;entryX=0.5;entryY=1;entryDx=0;entryDy=0;elbow=vertical;fillColor=#a20025;strokeColor=#6F0000;" edge="1" parent="1" source="5AorsIgvm4bH7aJcMWdh-111" target="5AorsIgvm4bH7aJcMWdh-97">
          <mxGeometry relative="1" as="geometry">
            <mxPoint x="240" y="270" as="targetPoint" />
            <Array as="points">
              <mxPoint x="200" y="240" />
            </Array>
          </mxGeometry>
        </mxCell>
        <mxCell id="5AorsIgvm4bH7aJcMWdh-118" value="" style="elbow=vertical;strokeColor=#990000;strokeWidth=2;exitX=-0.018;exitY=0.41;exitDx=0;exitDy=0;exitPerimeter=0;entryX=1;entryY=0.4;entryDx=0;entryDy=0;entryPerimeter=0;" edge="1" parent="1" source="5AorsIgvm4bH7aJcMWdh-97" target="5AorsIgvm4bH7aJcMWdh-119">
          <mxGeometry width="100" height="100" relative="1" as="geometry">
            <mxPoint x="210" y="110" as="sourcePoint" />
            <mxPoint x="118.01999999999998" y="110" as="targetPoint" />
          </mxGeometry>
        </mxCell>
        <mxCell id="5AorsIgvm4bH7aJcMWdh-119" value="&lt;p style=&quot;margin: 0px; margin-top: 4px; text-align: center; text-decoration: underline;&quot;&gt;&lt;font style=&quot;font-size: 15px;&quot;&gt;找回账户&lt;/font&gt;&lt;/p&gt;&lt;hr&gt;&lt;p style=&quot;margin: 0px; margin-left: 8px;&quot;&gt;&lt;br&gt;&lt;/p&gt;&lt;p style=&quot;margin: 0px; margin-left: 8px;&quot;&gt;web明细？&lt;/p&gt;" style="verticalAlign=middle;align=center;overflow=fill;fontSize=12;fontFamily=Helvetica;html=1;rounded=1;fontStyle=1;strokeWidth=3;fillColor=#f5f5f5;strokeColor=#666666;fontColor=#333333;" vertex="1" parent="1">
          <mxGeometry x="30" y="60" width="110" height="100" as="geometry" />
        </mxCell>
        <mxCell id="5AorsIgvm4bH7aJcMWdh-158" value="" style="group;fillColor=#ffe6cc;strokeColor=#d79b00;" vertex="1" connectable="0" parent="1">
          <mxGeometry x="142.25" y="310" width="700" height="110" as="geometry" />
        </mxCell>
        <mxCell id="5AorsIgvm4bH7aJcMWdh-110" value="" style="shape=process;whiteSpace=wrap;align=center;verticalAlign=middle;size=0.1330246913580247;fontStyle=1;strokeWidth=3;fillColor=#f8cecc;fontSize=15;strokeColor=#b85450;" vertex="1" parent="5AorsIgvm4bH7aJcMWdh-158">
          <mxGeometry x="-110" width="810" height="109" as="geometry" />
        </mxCell>
        <mxCell id="5AorsIgvm4bH7aJcMWdh-116" value="多语言切换" style="text;strokeColor=none;align=center;fillColor=none;html=1;verticalAlign=middle;whiteSpace=wrap;rounded=0;" vertex="1" parent="5AorsIgvm4bH7aJcMWdh-158">
          <mxGeometry x="612.7503270223751" y="40" width="70.54216867469879" height="30" as="geometry" />
        </mxCell>
        <mxCell id="5AorsIgvm4bH7aJcMWdh-151" value="主页左侧边栏" style="shape=table;startSize=40;container=1;collapsible=0;childLayout=tableLayout;fillColor=none;fontSize=14;fontStyle=1;strokeColor=light-dark(#666666,#EDEDED);opacity=20;strokeWidth=2;" vertex="1" parent="5AorsIgvm4bH7aJcMWdh-158">
          <mxGeometry width="590" height="110" as="geometry" />
        </mxCell>
        <mxCell id="5AorsIgvm4bH7aJcMWdh-152" value="" style="shape=tableRow;horizontal=0;startSize=0;swimlaneHead=0;swimlaneBody=0;strokeColor=light-dark(#000000,#EDEDED);top=0;left=0;bottom=0;right=0;collapsible=0;dropTarget=0;fillColor=none;points=[[0,0.5],[1,0.5]];portConstraint=eastwest;opacity=70;" vertex="1" parent="5AorsIgvm4bH7aJcMWdh-151">
          <mxGeometry y="40" width="590" height="70" as="geometry" />
        </mxCell>
        <mxCell id="5AorsIgvm4bH7aJcMWdh-153" value="&lt;span style=&quot;font-size: 15px; font-weight: 700;&quot;&gt;商户&lt;/span&gt;" style="shape=partialRectangle;html=1;whiteSpace=wrap;connectable=0;strokeColor=light-dark(#000000,#EDEDED);overflow=hidden;fillColor=none;top=0;left=0;bottom=0;right=0;pointerEvents=1;opacity=70;" vertex="1" parent="5AorsIgvm4bH7aJcMWdh-152">
          <mxGeometry width="116" height="70" as="geometry">
            <mxRectangle width="116" height="70" as="alternateBounds" />
          </mxGeometry>
        </mxCell>
        <mxCell id="5AorsIgvm4bH7aJcMWdh-154" value="&lt;span style=&quot;font-size: 15px; font-weight: 700;&quot;&gt;门店&lt;/span&gt;" style="shape=partialRectangle;html=1;whiteSpace=wrap;connectable=0;strokeColor=light-dark(#000000,#EDEDED);overflow=hidden;fillColor=none;top=0;left=0;bottom=0;right=0;pointerEvents=1;opacity=70;" vertex="1" parent="5AorsIgvm4bH7aJcMWdh-152">
          <mxGeometry x="116" width="113" height="70" as="geometry">
            <mxRectangle width="113" height="70" as="alternateBounds" />
          </mxGeometry>
        </mxCell>
        <mxCell id="5AorsIgvm4bH7aJcMWdh-155" value="&lt;span style=&quot;font-size: 15px; font-weight: 700;&quot;&gt;订单查询&lt;/span&gt;" style="shape=partialRectangle;html=1;whiteSpace=wrap;connectable=0;strokeColor=light-dark(#000000,#EDEDED);overflow=hidden;fillColor=none;top=0;left=0;bottom=0;right=0;pointerEvents=1;opacity=70;" vertex="1" parent="5AorsIgvm4bH7aJcMWdh-152">
          <mxGeometry x="229" width="116" height="70" as="geometry">
            <mxRectangle width="116" height="70" as="alternateBounds" />
          </mxGeometry>
        </mxCell>
        <mxCell id="5AorsIgvm4bH7aJcMWdh-156" value="&lt;span style=&quot;font-size: 15px; font-weight: 700;&quot;&gt;发起订单&lt;/span&gt;" style="shape=partialRectangle;html=1;whiteSpace=wrap;connectable=0;strokeColor=light-dark(#000000,#EDEDED);overflow=hidden;fillColor=none;top=0;left=0;bottom=0;right=0;pointerEvents=1;opacity=70;" vertex="1" parent="5AorsIgvm4bH7aJcMWdh-152">
          <mxGeometry x="345" width="113" height="70" as="geometry">
            <mxRectangle width="113" height="70" as="alternateBounds" />
          </mxGeometry>
        </mxCell>
        <mxCell id="5AorsIgvm4bH7aJcMWdh-157" value="&lt;span style=&quot;font-size: 15px; font-weight: 700;&quot;&gt;退款&lt;/span&gt;" style="shape=partialRectangle;html=1;whiteSpace=wrap;connectable=0;strokeColor=light-dark(#000000,#EDEDED);overflow=hidden;fillColor=none;top=0;left=0;bottom=0;right=0;pointerEvents=1;opacity=70;" vertex="1" parent="5AorsIgvm4bH7aJcMWdh-152">
          <mxGeometry x="458" width="132" height="70" as="geometry">
            <mxRectangle width="132" height="70" as="alternateBounds" />
          </mxGeometry>
        </mxCell>
        <mxCell id="5AorsIgvm4bH7aJcMWdh-111" value="&lt;div&gt;&lt;span style=&quot;background-color: transparent; color: light-dark(rgb(0, 0, 0), rgb(255, 255, 255));&quot;&gt;退出登录&lt;/span&gt;&lt;/div&gt;" style="text;strokeColor=none;align=center;fillColor=none;html=1;verticalAlign=middle;whiteSpace=wrap;rounded=0;" vertex="1" parent="5AorsIgvm4bH7aJcMWdh-158">
          <mxGeometry x="-82.24764199655766" y="39.5" width="60.46471600688468" height="30" as="geometry" />
        </mxCell>
        <mxCell id="5AorsIgvm4bH7aJcMWdh-181" value="" style="edgeStyle=elbowEdgeStyle;rounded=0;orthogonalLoop=1;jettySize=auto;html=1;fillColor=#dae8fc;strokeColor=#6c8ebf;strokeWidth=2;" edge="1" parent="1" source="5AorsIgvm4bH7aJcMWdh-159" target="5AorsIgvm4bH7aJcMWdh-180">
          <mxGeometry relative="1" as="geometry" />
        </mxCell>
        <mxCell id="5AorsIgvm4bH7aJcMWdh-159" value="&lt;p style=&quot;margin: 0px; margin-top: 4px; text-align: center; text-decoration: underline;&quot;&gt;&lt;strong&gt;&lt;font style=&quot;font-size: 15px;&quot;&gt;门店列表页&lt;/font&gt;&lt;/strong&gt;&lt;/p&gt;&lt;hr&gt;&lt;p style=&quot;margin: 0px; margin-left: 8px;&quot;&gt;&lt;br&gt;&lt;/p&gt;" style="verticalAlign=middle;align=center;overflow=fill;fontSize=12;fontFamily=Helvetica;html=1;rounded=1;fontStyle=1;strokeWidth=3;fillColor=#dae8fc;strokeColor=#6c8ebf;" vertex="1" parent="1">
          <mxGeometry x="200" y="500" width="110" height="90" as="geometry" />
        </mxCell>
        <mxCell id="5AorsIgvm4bH7aJcMWdh-162" value="" style="edgeStyle=elbowEdgeStyle;rounded=0;orthogonalLoop=1;jettySize=auto;html=1;fillColor=#dae8fc;strokeColor=#6c8ebf;strokeWidth=2;" edge="1" parent="1" source="5AorsIgvm4bH7aJcMWdh-160" target="5AorsIgvm4bH7aJcMWdh-161">
          <mxGeometry relative="1" as="geometry" />
        </mxCell>
        <mxCell id="5AorsIgvm4bH7aJcMWdh-160" value="&lt;p style=&quot;margin: 0px; margin-top: 4px; text-align: center; text-decoration: underline;&quot;&gt;&lt;span style=&quot;font-size: 15px;&quot;&gt;订单列表&lt;/span&gt;&lt;/p&gt;&lt;hr&gt;&lt;p style=&quot;margin: 0px; margin-left: 8px;&quot;&gt;&lt;br&gt;&lt;/p&gt;" style="verticalAlign=middle;align=center;overflow=fill;fontSize=12;fontFamily=Helvetica;html=1;rounded=1;fontStyle=1;strokeWidth=3;fillColor=#dae8fc;strokeColor=#6c8ebf;" vertex="1" parent="1">
          <mxGeometry x="370" y="500" width="110" height="90" as="geometry" />
        </mxCell>
        <mxCell id="5AorsIgvm4bH7aJcMWdh-167" value="" style="edgeStyle=elbowEdgeStyle;rounded=0;orthogonalLoop=1;jettySize=auto;html=1;fillColor=#dae8fc;strokeColor=#6c8ebf;strokeWidth=2;" edge="1" parent="1" source="5AorsIgvm4bH7aJcMWdh-161" target="5AorsIgvm4bH7aJcMWdh-166">
          <mxGeometry relative="1" as="geometry" />
        </mxCell>
        <mxCell id="5AorsIgvm4bH7aJcMWdh-161" value="&lt;p style=&quot;margin: 0px; margin-top: 4px; text-align: center; text-decoration: underline;&quot;&gt;&lt;span style=&quot;font-size: 15px;&quot;&gt;订单查询&lt;/span&gt;&lt;/p&gt;&lt;hr&gt;&lt;p style=&quot;margin: 0px; margin-left: 8px;&quot;&gt;&lt;br&gt;&lt;/p&gt;" style="verticalAlign=middle;align=center;overflow=fill;fontSize=12;fontFamily=Helvetica;html=1;rounded=1;fontStyle=1;strokeWidth=3;fillColor=#dae8fc;strokeColor=#6c8ebf;" vertex="1" parent="1">
          <mxGeometry x="370" y="670" width="110" height="90" as="geometry" />
        </mxCell>
        <mxCell id="5AorsIgvm4bH7aJcMWdh-163" value="" style="group" vertex="1" connectable="0" parent="1">
          <mxGeometry x="530" y="1230" width="290" height="220" as="geometry" />
        </mxCell>
        <mxCell id="5AorsIgvm4bH7aJcMWdh-121" value="&lt;p style=&quot;margin: 0px; margin-top: 4px; text-align: center; text-decoration: underline;&quot;&gt;&lt;span style=&quot;font-size: 15px;&quot;&gt;订单支付页&lt;/span&gt;&lt;/p&gt;&lt;hr&gt;&lt;p style=&quot;margin: 0px; margin-left: 8px;&quot;&gt;&lt;span style=&quot;font-weight: normal;&quot;&gt;link订单支付页&lt;/span&gt;&lt;/p&gt;&lt;p style=&quot;margin: 0px; margin-left: 8px;&quot;&gt;&lt;span style=&quot;font-weight: normal;&quot;&gt;付款客户用&lt;/span&gt;&lt;/p&gt;" style="verticalAlign=middle;align=center;overflow=fill;fontSize=12;fontFamily=Helvetica;html=1;rounded=1;fontStyle=1;strokeWidth=3;fillColor=#ffe6cc;strokeColor=#d79b00;" vertex="1" parent="5AorsIgvm4bH7aJcMWdh-163">
          <mxGeometry y="50" width="110" height="100" as="geometry" />
        </mxCell>
        <mxCell id="5AorsIgvm4bH7aJcMWdh-122" value="&lt;p style=&quot;margin: 0px; margin-top: 4px; text-align: center; text-decoration: underline;&quot;&gt;&lt;span style=&quot;font-size: 15px;&quot;&gt;支付成功页&lt;/span&gt;&lt;/p&gt;&lt;hr&gt;&lt;p style=&quot;margin: 0px; margin-left: 8px;&quot;&gt;提示支付成功&lt;/p&gt;" style="verticalAlign=middle;align=center;overflow=fill;fontSize=12;fontFamily=Helvetica;html=1;rounded=1;fontStyle=1;strokeWidth=3;fillColor=#ffe6cc;strokeColor=#d79b00;" vertex="1" parent="5AorsIgvm4bH7aJcMWdh-163">
          <mxGeometry x="180" width="110" height="100" as="geometry" />
        </mxCell>
        <mxCell id="5AorsIgvm4bH7aJcMWdh-125" value="" style="strokeWidth=2;html=1;shape=mxgraph.flowchart.annotation_2;align=left;labelPosition=right;pointerEvents=1;fillColor=#ffe6cc;strokeColor=#d79b00;" vertex="1" parent="5AorsIgvm4bH7aJcMWdh-163">
          <mxGeometry x="110" y="50" width="70" height="130" as="geometry" />
        </mxCell>
        <mxCell id="5AorsIgvm4bH7aJcMWdh-130" value="&lt;p style=&quot;margin: 0px; margin-top: 4px; text-align: center; text-decoration: underline;&quot;&gt;&lt;span style=&quot;font-size: 15px;&quot;&gt;支付失败页&lt;/span&gt;&lt;/p&gt;&lt;hr&gt;&lt;p style=&quot;margin: 0px; margin-left: 8px;&quot;&gt;提示支付失败&lt;/p&gt;&lt;p style=&quot;margin: 0px; margin-left: 8px;&quot;&gt;&lt;br&gt;&lt;/p&gt;" style="verticalAlign=middle;align=center;overflow=fill;fontSize=12;fontFamily=Helvetica;html=1;rounded=1;fontStyle=1;strokeWidth=3;fillColor=#ffe6cc;strokeColor=#d79b00;" vertex="1" parent="5AorsIgvm4bH7aJcMWdh-163">
          <mxGeometry x="180" y="120" width="110" height="100" as="geometry" />
        </mxCell>
        <mxCell id="5AorsIgvm4bH7aJcMWdh-166" value="&lt;p style=&quot;margin: 0px; margin-top: 4px; text-align: center; text-decoration: underline;&quot;&gt;&lt;span style=&quot;font-size: 15px;&quot;&gt;订单详情&lt;/span&gt;&lt;/p&gt;&lt;hr&gt;&lt;p style=&quot;margin: 0px; margin-left: 8px;&quot;&gt;&lt;br&gt;&lt;/p&gt;" style="verticalAlign=middle;align=center;overflow=fill;fontSize=12;fontFamily=Helvetica;html=1;rounded=1;fontStyle=1;strokeWidth=3;fillColor=#dae8fc;strokeColor=#6c8ebf;" vertex="1" parent="1">
          <mxGeometry x="370" y="830" width="110" height="90" as="geometry" />
        </mxCell>
        <mxCell id="5AorsIgvm4bH7aJcMWdh-201" style="edgeStyle=elbowEdgeStyle;rounded=1;orthogonalLoop=1;jettySize=auto;html=1;exitX=0.5;exitY=1;exitDx=0;exitDy=0;curved=0;fillColor=#ffe6cc;strokeColor=#d79b00;strokeWidth=2;elbow=vertical;" edge="1" parent="1" source="5AorsIgvm4bH7aJcMWdh-213" target="5AorsIgvm4bH7aJcMWdh-121">
          <mxGeometry relative="1" as="geometry" />
        </mxCell>
        <mxCell id="5AorsIgvm4bH7aJcMWdh-214" value="" style="edgeStyle=elbowEdgeStyle;rounded=0;orthogonalLoop=1;jettySize=auto;html=1;fillColor=#dae8fc;strokeColor=#6c8ebf;strokeWidth=2;" edge="1" parent="1" source="5AorsIgvm4bH7aJcMWdh-168" target="5AorsIgvm4bH7aJcMWdh-213">
          <mxGeometry relative="1" as="geometry" />
        </mxCell>
        <mxCell id="5AorsIgvm4bH7aJcMWdh-168" value="&lt;p style=&quot;margin: 0px; margin-top: 4px; text-align: center; text-decoration: underline;&quot;&gt;&lt;span style=&quot;font-size: 15px;&quot;&gt;创建新订单&lt;/span&gt;&lt;/p&gt;&lt;hr&gt;&lt;p style=&quot;margin: 0px; margin-left: 8px;&quot;&gt;&lt;br&gt;&lt;/p&gt;" style="verticalAlign=middle;align=center;overflow=fill;fontSize=12;fontFamily=Helvetica;html=1;rounded=1;fontStyle=1;strokeWidth=3;fillColor=#dae8fc;strokeColor=#6c8ebf;" vertex="1" parent="1">
          <mxGeometry x="530" y="500" width="110" height="90" as="geometry" />
        </mxCell>
        <mxCell id="5AorsIgvm4bH7aJcMWdh-171" value="" style="edgeStyle=elbowEdgeStyle;rounded=0;orthogonalLoop=1;jettySize=auto;html=1;fillColor=#dae8fc;strokeColor=#6c8ebf;strokeWidth=2;" edge="1" parent="1" source="5AorsIgvm4bH7aJcMWdh-169" target="5AorsIgvm4bH7aJcMWdh-170">
          <mxGeometry relative="1" as="geometry" />
        </mxCell>
        <mxCell id="5AorsIgvm4bH7aJcMWdh-169" value="&lt;p style=&quot;margin: 0px; margin-top: 4px; text-align: center; text-decoration: underline;&quot;&gt;&lt;span style=&quot;font-size: 15px;&quot;&gt;发起退款&lt;/span&gt;&lt;/p&gt;&lt;hr&gt;&lt;p style=&quot;margin: 0px; margin-left: 8px;&quot;&gt;输入订单号查询&lt;/p&gt;" style="verticalAlign=middle;align=center;overflow=fill;fontSize=12;fontFamily=Helvetica;html=1;rounded=1;fontStyle=1;strokeWidth=3;fillColor=#dae8fc;strokeColor=#6c8ebf;" vertex="1" parent="1">
          <mxGeometry x="690" y="500" width="110" height="90" as="geometry" />
        </mxCell>
        <mxCell id="5AorsIgvm4bH7aJcMWdh-173" value="" style="edgeStyle=elbowEdgeStyle;rounded=0;orthogonalLoop=1;jettySize=auto;html=1;fillColor=#dae8fc;strokeColor=#6c8ebf;strokeWidth=2;" edge="1" parent="1" source="5AorsIgvm4bH7aJcMWdh-170" target="5AorsIgvm4bH7aJcMWdh-172">
          <mxGeometry relative="1" as="geometry" />
        </mxCell>
        <mxCell id="5AorsIgvm4bH7aJcMWdh-170" value="&lt;p style=&quot;margin: 0px; margin-top: 4px; text-align: center; text-decoration: underline;&quot;&gt;&lt;span style=&quot;font-size: 15px;&quot;&gt;订单详情&lt;/span&gt;&lt;/p&gt;&lt;hr&gt;&lt;p style=&quot;margin: 0px; margin-left: 8px;&quot;&gt;确认退款&lt;/p&gt;&lt;p style=&quot;margin: 0px; margin-left: 8px;&quot;&gt;订单信息&lt;/p&gt;" style="verticalAlign=middle;align=center;overflow=fill;fontSize=12;fontFamily=Helvetica;html=1;rounded=1;fontStyle=1;strokeWidth=3;fillColor=#dae8fc;strokeColor=#6c8ebf;" vertex="1" parent="1">
          <mxGeometry x="690" y="670" width="110" height="90" as="geometry" />
        </mxCell>
        <mxCell id="5AorsIgvm4bH7aJcMWdh-175" value="" style="edgeStyle=elbowEdgeStyle;rounded=0;orthogonalLoop=1;jettySize=auto;html=1;fillColor=#dae8fc;strokeColor=#6c8ebf;strokeWidth=2;" edge="1" parent="1" source="5AorsIgvm4bH7aJcMWdh-172" target="5AorsIgvm4bH7aJcMWdh-174">
          <mxGeometry relative="1" as="geometry" />
        </mxCell>
        <mxCell id="5AorsIgvm4bH7aJcMWdh-172" value="&lt;p style=&quot;margin: 0px; margin-top: 4px; text-align: center; text-decoration: underline;&quot;&gt;&lt;span style=&quot;font-size: 15px;&quot;&gt;确认退款&lt;/span&gt;&lt;/p&gt;&lt;hr&gt;&lt;p style=&quot;margin: 0px; margin-left: 8px;&quot;&gt;输入授权码&lt;/p&gt;" style="verticalAlign=middle;align=center;overflow=fill;fontSize=12;fontFamily=Helvetica;html=1;rounded=1;fontStyle=1;strokeWidth=3;fillColor=#dae8fc;strokeColor=#6c8ebf;" vertex="1" parent="1">
          <mxGeometry x="690" y="840" width="110" height="90" as="geometry" />
        </mxCell>
        <mxCell id="5AorsIgvm4bH7aJcMWdh-174" value="&lt;p style=&quot;margin: 0px; margin-top: 4px; text-align: center; text-decoration: underline;&quot;&gt;&lt;span style=&quot;font-size: 15px;&quot;&gt;退款成功&lt;/span&gt;&lt;/p&gt;&lt;hr&gt;&lt;p style=&quot;margin: 0px; margin-left: 8px;&quot;&gt;&lt;br&gt;&lt;/p&gt;" style="verticalAlign=middle;align=center;overflow=fill;fontSize=12;fontFamily=Helvetica;html=1;rounded=1;fontStyle=1;strokeWidth=3;fillColor=#dae8fc;strokeColor=#6c8ebf;" vertex="1" parent="1">
          <mxGeometry x="689.9999999999999" y="1010" width="110" height="90" as="geometry" />
        </mxCell>
        <mxCell id="5AorsIgvm4bH7aJcMWdh-179" value="" style="edgeStyle=elbowEdgeStyle;rounded=0;orthogonalLoop=1;jettySize=auto;html=1;fillColor=#dae8fc;strokeColor=#6c8ebf;strokeWidth=2;" edge="1" parent="1" source="5AorsIgvm4bH7aJcMWdh-176" target="5AorsIgvm4bH7aJcMWdh-178">
          <mxGeometry relative="1" as="geometry" />
        </mxCell>
        <mxCell id="5AorsIgvm4bH7aJcMWdh-176" value="&lt;p style=&quot;margin: 0px; margin-top: 4px; text-align: center; text-decoration: underline;&quot;&gt;&lt;strong&gt;&lt;font style=&quot;font-size: 15px;&quot;&gt;商户信息页&lt;/font&gt;&lt;/strong&gt;&lt;/p&gt;&lt;hr&gt;&lt;p style=&quot;margin: 0px; margin-left: 8px;&quot;&gt;&lt;br&gt;&lt;/p&gt;" style="verticalAlign=middle;align=center;overflow=fill;fontSize=12;fontFamily=Helvetica;html=1;rounded=1;fontStyle=1;strokeWidth=3;fillColor=#dae8fc;strokeColor=#6c8ebf;" vertex="1" parent="1">
          <mxGeometry x="30" y="670" width="110" height="90" as="geometry" />
        </mxCell>
        <mxCell id="5AorsIgvm4bH7aJcMWdh-187" style="edgeStyle=elbowEdgeStyle;rounded=0;orthogonalLoop=1;jettySize=auto;html=1;exitX=1;exitY=0.5;exitDx=0;exitDy=0;entryX=0;entryY=0.5;entryDx=0;entryDy=0;strokeWidth=2;fillColor=#dae8fc;strokeColor=#6c8ebf;" edge="1" parent="1" source="5AorsIgvm4bH7aJcMWdh-178" target="5AorsIgvm4bH7aJcMWdh-159">
          <mxGeometry relative="1" as="geometry" />
        </mxCell>
        <mxCell id="5AorsIgvm4bH7aJcMWdh-188" style="edgeStyle=elbowEdgeStyle;rounded=0;orthogonalLoop=1;jettySize=auto;html=1;exitX=1;exitY=0.75;exitDx=0;exitDy=0;entryX=0;entryY=0.75;entryDx=0;entryDy=0;elbow=vertical;fillColor=#dae8fc;strokeColor=#6c8ebf;strokeWidth=2;" edge="1" parent="1" source="5AorsIgvm4bH7aJcMWdh-178" target="5AorsIgvm4bH7aJcMWdh-182">
          <mxGeometry relative="1" as="geometry" />
        </mxCell>
        <mxCell id="5AorsIgvm4bH7aJcMWdh-178" value="&lt;p style=&quot;margin: 0px; margin-top: 4px; text-align: center; text-decoration: underline;&quot;&gt;&lt;strong&gt;&lt;font style=&quot;font-size: 15px;&quot;&gt;商户联系人页&lt;/font&gt;&lt;/strong&gt;&lt;/p&gt;&lt;hr&gt;&lt;p style=&quot;margin: 0px; margin-left: 8px;&quot;&gt;&lt;br&gt;&lt;/p&gt;" style="verticalAlign=middle;align=center;overflow=fill;fontSize=12;fontFamily=Helvetica;html=1;rounded=1;fontStyle=1;strokeWidth=3;fillColor=#dae8fc;strokeColor=#6c8ebf;" vertex="1" parent="1">
          <mxGeometry x="30" y="830" width="110" height="90" as="geometry" />
        </mxCell>
        <mxCell id="5AorsIgvm4bH7aJcMWdh-183" value="" style="edgeStyle=elbowEdgeStyle;rounded=0;orthogonalLoop=1;jettySize=auto;html=1;fillColor=#dae8fc;strokeColor=#6c8ebf;strokeWidth=2;" edge="1" parent="1" source="5AorsIgvm4bH7aJcMWdh-180" target="5AorsIgvm4bH7aJcMWdh-182">
          <mxGeometry relative="1" as="geometry" />
        </mxCell>
        <mxCell id="5AorsIgvm4bH7aJcMWdh-180" value="&lt;p style=&quot;margin: 0px; margin-top: 4px; text-align: center; text-decoration: underline;&quot;&gt;&lt;span style=&quot;font-size: 15px;&quot;&gt;门店信息&lt;/span&gt;&lt;/p&gt;&lt;hr&gt;&lt;p style=&quot;margin: 0px; margin-left: 8px;&quot;&gt;查看门店&lt;/p&gt;&lt;p style=&quot;margin: 0px; margin-left: 8px;&quot;&gt;信息弹窗&lt;/p&gt;" style="verticalAlign=middle;align=center;overflow=fill;fontSize=12;fontFamily=Helvetica;html=1;rounded=1;fontStyle=1;strokeWidth=3;fillColor=#dae8fc;strokeColor=#6c8ebf;" vertex="1" parent="1">
          <mxGeometry x="200" y="670" width="110" height="90" as="geometry" />
        </mxCell>
        <mxCell id="5AorsIgvm4bH7aJcMWdh-193" style="edgeStyle=elbowEdgeStyle;rounded=0;orthogonalLoop=1;jettySize=auto;html=1;entryX=0.5;entryY=0;entryDx=0;entryDy=0;elbow=vertical;fillColor=#dae8fc;strokeColor=#6c8ebf;strokeWidth=2;" edge="1" parent="1" source="5AorsIgvm4bH7aJcMWdh-182" target="5AorsIgvm4bH7aJcMWdh-192">
          <mxGeometry relative="1" as="geometry" />
        </mxCell>
        <mxCell id="5AorsIgvm4bH7aJcMWdh-194" style="edgeStyle=elbowEdgeStyle;rounded=0;orthogonalLoop=1;jettySize=auto;html=1;entryX=0.5;entryY=0;entryDx=0;entryDy=0;elbow=vertical;fillColor=#dae8fc;strokeColor=#6c8ebf;strokeWidth=2;" edge="1" parent="1" source="5AorsIgvm4bH7aJcMWdh-182" target="5AorsIgvm4bH7aJcMWdh-185">
          <mxGeometry relative="1" as="geometry" />
        </mxCell>
        <mxCell id="5AorsIgvm4bH7aJcMWdh-182" value="&lt;p style=&quot;margin: 0px; margin-top: 4px; text-align: center; text-decoration: underline;&quot;&gt;&lt;span style=&quot;font-size: 15px;&quot;&gt;用户列表&lt;/span&gt;&lt;/p&gt;&lt;hr&gt;&lt;p style=&quot;margin: 0px; margin-left: 8px;&quot;&gt;&lt;br&gt;&lt;/p&gt;" style="verticalAlign=middle;align=center;overflow=fill;fontSize=12;fontFamily=Helvetica;html=1;rounded=1;fontStyle=1;strokeWidth=3;fillColor=#dae8fc;strokeColor=#6c8ebf;" vertex="1" parent="1">
          <mxGeometry x="200" y="830" width="110" height="90" as="geometry" />
        </mxCell>
        <mxCell id="5AorsIgvm4bH7aJcMWdh-185" value="&lt;p style=&quot;margin: 0px; margin-top: 4px; text-align: center; text-decoration: underline;&quot;&gt;&lt;span style=&quot;font-size: 15px;&quot;&gt;用户详情&lt;/span&gt;&lt;/p&gt;&lt;hr&gt;&lt;p style=&quot;margin: 0px; margin-left: 8px;&quot;&gt;&lt;br&gt;&lt;/p&gt;" style="verticalAlign=middle;align=center;overflow=fill;fontSize=12;fontFamily=Helvetica;html=1;rounded=1;fontStyle=1;strokeWidth=3;fillColor=#dae8fc;strokeColor=#6c8ebf;" vertex="1" parent="1">
          <mxGeometry x="280" y="1010" width="110" height="90" as="geometry" />
        </mxCell>
        <mxCell id="5AorsIgvm4bH7aJcMWdh-192" value="&lt;p style=&quot;margin: 0px; margin-top: 4px; text-align: center; text-decoration: underline;&quot;&gt;&lt;span style=&quot;font-size: 15px;&quot;&gt;用户编辑&lt;/span&gt;&lt;/p&gt;&lt;hr&gt;&lt;p style=&quot;margin: 0px; margin-left: 8px;&quot;&gt;&lt;br&gt;&lt;/p&gt;" style="verticalAlign=middle;align=center;overflow=fill;fontSize=12;fontFamily=Helvetica;html=1;rounded=1;fontStyle=1;strokeWidth=3;fillColor=#dae8fc;strokeColor=#6c8ebf;" vertex="1" parent="1">
          <mxGeometry x="150" y="1010" width="110" height="90" as="geometry" />
        </mxCell>
        <mxCell id="5AorsIgvm4bH7aJcMWdh-195" value="&lt;p style=&quot;margin: 0px; margin-top: 4px; text-align: center; text-decoration: underline;&quot;&gt;&lt;span style=&quot;font-size: 15px;&quot;&gt;新增用户&lt;/span&gt;&lt;/p&gt;&lt;hr&gt;&lt;p style=&quot;margin: 0px; margin-left: 8px;&quot;&gt;&lt;br&gt;&lt;/p&gt;" style="verticalAlign=middle;align=center;overflow=fill;fontSize=12;fontFamily=Helvetica;html=1;rounded=1;fontStyle=1;strokeWidth=3;fillColor=#dae8fc;strokeColor=#6c8ebf;" vertex="1" parent="1">
          <mxGeometry x="30" y="1010" width="110" height="90" as="geometry" />
        </mxCell>
        <mxCell id="5AorsIgvm4bH7aJcMWdh-199" style="edgeStyle=elbowEdgeStyle;rounded=1;orthogonalLoop=1;jettySize=auto;html=1;exitX=0.5;exitY=1;exitDx=0;exitDy=0;entryX=0.5;entryY=0;entryDx=0;entryDy=0;curved=0;fillColor=#dae8fc;strokeColor=#6c8ebf;strokeWidth=2;elbow=vertical;" edge="1" parent="1" source="5AorsIgvm4bH7aJcMWdh-178" target="5AorsIgvm4bH7aJcMWdh-195">
          <mxGeometry relative="1" as="geometry" />
        </mxCell>
        <mxCell id="5AorsIgvm4bH7aJcMWdh-203" value="" style="endArrow=classic;html=1;rounded=1;entryX=0.5;entryY=0;entryDx=0;entryDy=0;exitX=0.1;exitY=1.014;exitDx=0;exitDy=0;exitPerimeter=0;fillColor=#a20025;strokeColor=#6F0000;strokeWidth=2;edgeStyle=orthogonalEdgeStyle;" edge="1" parent="1" source="5AorsIgvm4bH7aJcMWdh-152" target="10">
          <mxGeometry width="50" height="50" relative="1" as="geometry">
            <mxPoint x="200" y="460" as="sourcePoint" />
            <mxPoint x="250" y="410" as="targetPoint" />
          </mxGeometry>
        </mxCell>
        <mxCell id="5AorsIgvm4bH7aJcMWdh-207" value="" style="endArrow=classic;html=1;rounded=1;exitX=0.298;exitY=0.971;exitDx=0;exitDy=0;exitPerimeter=0;entryX=0.5;entryY=0;entryDx=0;entryDy=0;edgeStyle=elbowEdgeStyle;elbow=vertical;fillColor=#a20025;strokeColor=#6F0000;strokeWidth=2;" edge="1" parent="1" source="5AorsIgvm4bH7aJcMWdh-152" target="5AorsIgvm4bH7aJcMWdh-159">
          <mxGeometry width="50" height="50" relative="1" as="geometry">
            <mxPoint x="330" y="460" as="sourcePoint" />
            <mxPoint x="380" y="410" as="targetPoint" />
          </mxGeometry>
        </mxCell>
        <mxCell id="5AorsIgvm4bH7aJcMWdh-208" value="" style="endArrow=classic;html=1;rounded=0;exitX=0.489;exitY=0.971;exitDx=0;exitDy=0;exitPerimeter=0;entryX=0.564;entryY=-0.011;entryDx=0;entryDy=0;entryPerimeter=0;fillColor=#a20025;strokeColor=#6F0000;strokeWidth=2;" edge="1" parent="1" source="5AorsIgvm4bH7aJcMWdh-152" target="5AorsIgvm4bH7aJcMWdh-160">
          <mxGeometry width="50" height="50" relative="1" as="geometry">
            <mxPoint x="410" y="590" as="sourcePoint" />
            <mxPoint x="450" y="480" as="targetPoint" />
            <Array as="points" />
          </mxGeometry>
        </mxCell>
        <mxCell id="5AorsIgvm4bH7aJcMWdh-210" value="" style="endArrow=classic;html=1;rounded=1;exitX=0.686;exitY=0.986;exitDx=0;exitDy=0;exitPerimeter=0;entryX=0.5;entryY=0;entryDx=0;entryDy=0;edgeStyle=elbowEdgeStyle;elbow=vertical;fillColor=#a20025;strokeColor=#6F0000;strokeWidth=2;curved=0;" edge="1" parent="1" source="5AorsIgvm4bH7aJcMWdh-152" target="5AorsIgvm4bH7aJcMWdh-168">
          <mxGeometry width="50" height="50" relative="1" as="geometry">
            <mxPoint x="410" y="590" as="sourcePoint" />
            <mxPoint x="460" y="540" as="targetPoint" />
            <Array as="points">
              <mxPoint x="570" y="460" />
            </Array>
          </mxGeometry>
        </mxCell>
        <mxCell id="5AorsIgvm4bH7aJcMWdh-211" value="" style="endArrow=classic;html=1;rounded=1;exitX=0.894;exitY=0.986;exitDx=0;exitDy=0;exitPerimeter=0;entryX=0.5;entryY=0;entryDx=0;entryDy=0;edgeStyle=elbowEdgeStyle;elbow=vertical;fillColor=#a20025;strokeColor=#6F0000;strokeWidth=2;curved=0;" edge="1" parent="1" source="5AorsIgvm4bH7aJcMWdh-152" target="5AorsIgvm4bH7aJcMWdh-169">
          <mxGeometry width="50" height="50" relative="1" as="geometry">
            <mxPoint x="690" y="420" as="sourcePoint" />
            <mxPoint x="728" y="501" as="targetPoint" />
            <Array as="points">
              <mxPoint x="713" y="461" />
            </Array>
          </mxGeometry>
        </mxCell>
        <mxCell id="5AorsIgvm4bH7aJcMWdh-213" value="&lt;p style=&quot;margin: 0px; margin-top: 4px; text-align: center; text-decoration: underline;&quot;&gt;&lt;span style=&quot;font-size: 15px;&quot;&gt;创建成功&lt;/span&gt;&lt;/p&gt;&lt;hr&gt;&lt;p style=&quot;margin: 0px; margin-left: 8px;&quot;&gt;信息&lt;/p&gt;&lt;p style=&quot;margin: 0px; margin-left: 8px;&quot;&gt;url&lt;/p&gt;" style="verticalAlign=middle;align=center;overflow=fill;fontSize=12;fontFamily=Helvetica;html=1;rounded=1;fontStyle=1;strokeWidth=3;fillColor=#dae8fc;strokeColor=#6c8ebf;" vertex="1" parent="1">
          <mxGeometry x="530" y="670" width="110" height="90" as="geometry" />
        </mxCell>
        <mxCell id="5AorsIgvm4bH7aJcMWdh-215" value="" style="endArrow=classic;html=1;rounded=1;entryX=1;entryY=0.5;entryDx=0;entryDy=0;exitX=0.5;exitY=1;exitDx=0;exitDy=0;fillColor=#dae8fc;strokeColor=#6c8ebf;strokeWidth=2;edgeStyle=orthogonalEdgeStyle;curved=0;" edge="1" parent="1" source="5AorsIgvm4bH7aJcMWdh-213" target="5AorsIgvm4bH7aJcMWdh-166">
          <mxGeometry width="50" height="50" relative="1" as="geometry">
            <mxPoint x="450" y="790" as="sourcePoint" />
            <mxPoint x="500" y="740" as="targetPoint" />
          </mxGeometry>
        </mxCell>
        <mxCell id="5AorsIgvm4bH7aJcMWdh-216" value="" style="rounded=1;whiteSpace=wrap;html=1;fillColor=none;dashed=1;strokeColor=#d6b656;strokeWidth=2;" vertex="1" parent="1">
          <mxGeometry x="420" y="1170" width="460" height="320" as="geometry" />
        </mxCell>
        <mxCell id="5AorsIgvm4bH7aJcMWdh-217" value="客户用&lt;div&gt;无权限验证&lt;/div&gt;" style="text;strokeColor=none;align=center;fillColor=none;html=1;verticalAlign=middle;whiteSpace=wrap;rounded=0;" vertex="1" parent="1">
          <mxGeometry x="450" y="1190" width="80" height="30" as="geometry" />
        </mxCell>
      </root>
    </mxGraphModel>
  </diagram>
</mxfile>
